<svg t="1755745487330" class="icon" viewBox="0 0 1194 1024" version="1.1" xmlns="http://www.w3.org/2000/svg" p-id="7764"
     width="200" height="200">
    <path d="M597.313948 358.392246A597.333333 597.333333 0 0 0 0 955.725579h1194.666667a597.333333 597.333333 0 0 0-597.352719-597.333333z"
          fill="#3494FD" opacity=".2" p-id="7765"></path>
    <path d="M588.358019 0v409.607754H178.750265A409.607754 409.607754 0 0 1 588.358019 0z" fill="#1C5BFF"
          p-id="7766"></path>
    <path d="M997.946388 409.607754v409.607754H588.338634a409.607754 409.607754 0 0 1 409.607754-409.607754z"
          fill="#15C8C8" p-id="7767"></path>
    <path d="M997.946388 409.607754H588.338634V0a409.607754 409.607754 0 0 1 409.607754 409.607754z" fill="#0094FF"
          p-id="7768"></path>
    <path d="M588.338634 819.196123H178.73088v-409.607754a409.607754 409.607754 0 0 1 409.607754 409.607754z"
          fill="#FFB23E" p-id="7769"></path>
    <path d="M605.397547 1024a204.803877 204.803877 0 0 0 204.803877-204.803877H400.613055A204.803877 204.803877 0 0 0 605.397547 1024z"
          fill="#1C5BFF" p-id="7770"></path>
</svg>
